<svg width="24" height="24" viewBox="0 0 24 24" fill="none" xmlns="http://www.w3.org/2000/svg">
<path d="M16.8396 5.79645C17.2193 5.79645 17.5331 6.0786 17.5828 6.44467L17.5896 6.54645L17.5895 18.3465L20.3857 15.539C20.6779 15.2454 21.1528 15.2443 21.4464 15.5366C21.7133 15.8022 21.7384 16.2188 21.5213 16.5129L21.4488 16.5972L17.371 20.6939C17.3465 20.718 17.3215 20.7399 17.2951 20.7601L17.371 20.6939C17.3343 20.7308 17.2946 20.7632 17.2527 20.7909C17.2381 20.7999 17.223 20.8092 17.2074 20.818C17.193 20.8267 17.1784 20.8343 17.1635 20.8414C17.1489 20.8479 17.134 20.8544 17.1189 20.8605C17.0998 20.8687 17.0801 20.8756 17.0602 20.8817C17.0485 20.8849 17.0365 20.8882 17.0244 20.8913C17.0028 20.8972 16.981 20.9017 16.9592 20.9052C16.949 20.9064 16.9383 20.9079 16.9275 20.9091C16.9029 20.9125 16.8784 20.9142 16.854 20.9146C16.8492 20.9142 16.8444 20.9142 16.8396 20.9142L16.825 20.9146C16.8006 20.9142 16.7761 20.9125 16.7518 20.9097L16.8396 20.9142C16.7987 20.9142 16.7587 20.911 16.7196 20.9047C16.6979 20.9017 16.6762 20.8972 16.6547 20.8918C16.6434 20.8884 16.632 20.8852 16.6207 20.8818C16.5992 20.8758 16.5778 20.8682 16.5568 20.8597C16.5452 20.8544 16.5341 20.8495 16.5231 20.8444C16.5059 20.837 16.4886 20.8281 16.4715 20.8185C16.4562 20.8092 16.441 20.7999 16.4263 20.7902C16.4147 20.7832 16.4034 20.7752 16.3922 20.7669L16.3842 20.7601C16.3578 20.7399 16.3327 20.718 16.3093 20.6946L16.3079 20.6939L12.2302 16.5972C11.9379 16.3036 11.939 15.8288 12.2326 15.5366C12.4995 15.2709 12.9162 15.2477 13.2093 15.4662L13.2933 15.539L16.0895 18.3485L16.0896 6.54645C16.0896 6.13223 16.4254 5.79645 16.8396 5.79645ZM6.91116 3.08289L6.92577 3.08247C6.95021 3.08294 6.97463 3.0846 6.99894 3.08744L6.91116 3.08289C6.95202 3.08289 6.99212 3.08616 7.0312 3.09244C7.05258 3.09537 7.07404 3.09978 7.0953 3.10514C7.10781 3.10881 7.12056 3.11239 7.13317 3.11629C7.15286 3.12184 7.17192 3.12859 7.19073 3.13613C7.20434 3.14219 7.21811 3.14821 7.23166 3.15462C7.24777 3.16159 7.26363 3.16978 7.27924 3.17858C7.29261 3.18681 7.30584 3.19483 7.3188 3.20324C7.33214 3.21117 7.34549 3.22044 7.3586 3.23021L7.44283 3.30323L11.5206 7.3999C11.8128 7.69347 11.8117 8.16834 11.5182 8.46056C11.2513 8.72621 10.8346 8.74945 10.5414 8.53092L10.4575 8.4581L7.6605 5.64747L7.66116 17.4507C7.66116 17.8649 7.32538 18.2007 6.91116 18.2007C6.53147 18.2007 6.21767 17.9185 6.16801 17.5524L6.16116 17.4507L6.1605 5.64847L3.36505 8.4581C3.0994 8.72499 2.68279 8.75015 2.38868 8.53298L2.30439 8.46056C2.03751 8.1949 2.01234 7.7783 2.22952 7.48418L2.30194 7.3999L6.37972 3.30323L6.42388 3.26273C6.43425 3.25386 6.44487 3.24527 6.45572 3.23696L6.37972 3.30323C6.41651 3.26627 6.45619 3.23395 6.49804 3.20626C6.51264 3.19717 6.52782 3.18788 6.54334 3.17913C6.55775 3.17044 6.57239 3.16282 6.58723 3.15572C6.60187 3.14924 6.61673 3.1427 6.63183 3.13663C6.65101 3.12843 6.67069 3.12149 6.69057 3.11539C6.70266 3.11214 6.71505 3.10867 6.72756 3.10553C6.74771 3.09999 6.76808 3.09576 6.78856 3.09238C6.80087 3.09084 6.81294 3.08916 6.8251 3.08777C6.84826 3.08459 6.87201 3.08298 6.89578 3.08249C6.90102 3.08294 6.90609 3.08289 6.91116 3.08289Z" fill="white"/>
</svg>
