<svg width="122" height="22" viewBox="0 0 122 22" fill="none" xmlns="http://www.w3.org/2000/svg">
<path d="M5.49601 21H1.15601C0.801347 21 0.540009 20.9253 0.372009 20.776C0.222676 20.608 0.14801 20.3467 0.14801 19.992V1.848C0.14801 1.49333 0.222676 1.24133 0.372009 1.092C0.540009 0.923996 0.801347 0.839996 1.15601 0.839996H9.72401C12.2627 0.839996 13.9987 1.344 14.932 2.352C15.8653 3.36 16.332 4.676 16.332 6.3V9.884C16.332 11.508 15.8653 12.824 14.932 13.832C13.9987 14.84 12.2627 15.344 9.72401 15.344H6.50401V19.992C6.50401 20.3467 6.42001 20.608 6.25201 20.776C6.10268 20.9253 5.85068 21 5.49601 21ZM6.44801 6.076V10.304H8.96801C9.50934 10.304 9.86401 10.164 10.032 9.884C10.2 9.604 10.284 9.28666 10.284 8.932V7.448C10.284 7.09333 10.2 6.776 10.032 6.496C9.86401 6.216 9.50934 6.076 8.96801 6.076H6.44801Z" fill="white"/>
<path d="M24.5819 21H20.242C19.8873 21 19.6259 20.9253 19.4579 20.776C19.3086 20.608 19.2339 20.3467 19.2339 19.992V1.848C19.2339 1.49333 19.3086 1.24133 19.4579 1.092C19.6259 0.923996 19.8873 0.839996 20.242 0.839996H24.5819C24.9366 0.839996 25.1886 0.923996 25.338 1.092C25.506 1.24133 25.59 1.49333 25.59 1.848V7.924H30.266V1.848C30.266 1.49333 30.3406 1.24133 30.49 1.092C30.658 0.923996 30.9193 0.839996 31.2739 0.839996H35.614C35.9686 0.839996 36.2206 0.923996 36.3699 1.092C36.5379 1.24133 36.6219 1.49333 36.6219 1.848V19.992C36.6219 20.3467 36.5379 20.608 36.3699 20.776C36.2206 20.9253 35.9686 21 35.614 21H31.2739C30.9193 21 30.658 20.9253 30.49 20.776C30.3406 20.608 30.266 20.3467 30.266 19.992V13.776H25.59V19.992C25.59 20.3467 25.506 20.608 25.338 20.776C25.1886 20.9253 24.9366 21 24.5819 21Z" fill="white"/>
<path d="M45.828 21H41.488C41.1334 21 40.872 20.9253 40.704 20.776C40.5547 20.608 40.48 20.3467 40.48 19.992V1.848C40.48 1.49333 40.5547 1.24133 40.704 1.092C40.872 0.923996 41.1334 0.839996 41.488 0.839996H50.056C52.5947 0.839996 54.3307 1.344 55.264 2.352C56.1974 3.36 56.664 4.676 56.664 6.3V9.884C56.664 11.508 56.1974 12.824 55.264 13.832C54.3307 14.84 52.5947 15.344 50.056 15.344H46.836V19.992C46.836 20.3467 46.752 20.608 46.584 20.776C46.4347 20.9253 46.1827 21 45.828 21ZM46.78 6.076V10.304H49.3C49.8414 10.304 50.196 10.164 50.364 9.884C50.532 9.604 50.616 9.28666 50.616 8.932V7.448C50.616 7.09333 50.532 6.776 50.364 6.496C50.196 6.216 49.8414 6.076 49.3 6.076H46.78Z" fill="white"/>
<path d="M76.9881 15.708C76.9881 16.5667 76.8667 17.3507 76.6241 18.06C76.3814 18.7507 75.9521 19.348 75.3361 19.852C74.7387 20.3373 73.9081 20.72 72.8441 21C71.7801 21.28 70.4267 21.42 68.7841 21.42C67.1601 21.42 65.8161 21.28 64.7521 21C63.7067 20.72 62.8761 20.3373 62.2601 19.852C61.6627 19.348 61.2427 18.7507 61.0001 18.06C60.7761 17.3507 60.6641 16.5667 60.6641 15.708V11.172C60.6641 10.8173 60.7387 10.5653 60.8881 10.416C61.0561 10.248 61.3174 10.164 61.6721 10.164H65.7321C66.0867 10.164 66.3387 10.248 66.4881 10.416C66.6561 10.5653 66.7401 10.8173 66.7401 11.172V14.588C66.7401 14.9613 66.8521 15.2787 67.0761 15.54C67.3187 15.7827 67.8694 15.904 68.7281 15.904C69.5307 15.904 70.0347 15.7827 70.2401 15.54C70.4641 15.2787 70.5761 14.9613 70.5761 14.588V1.848C70.5761 1.49333 70.6507 1.24133 70.8001 1.092C70.9681 0.923996 71.2294 0.839996 71.5841 0.839996H75.9801C76.3347 0.839996 76.5867 0.923996 76.7361 1.092C76.9041 1.24133 76.9881 1.49333 76.9881 1.848V15.708Z" fill="white" fill-opacity="0.1"/>
<path d="M88.0334 6.72L86.7174 10.976H91.1134L89.7974 6.72C89.7227 6.552 89.6387 6.43066 89.5454 6.356C89.4707 6.28133 89.3774 6.244 89.2654 6.244H88.5654C88.4534 6.244 88.3507 6.28133 88.2574 6.356C88.1827 6.43066 88.1081 6.552 88.0334 6.72ZM86.4374 19.992C86.4374 20.3467 86.3534 20.608 86.1854 20.776C86.0361 20.9253 85.7841 21 85.4294 21H81.3134C80.9587 21 80.6974 20.9253 80.5294 20.776C80.3801 20.608 80.3054 20.3467 80.3054 19.992V12.6C80.3054 12.04 80.3894 11.396 80.5574 10.668C80.7441 9.94 81.0241 9.09066 81.3974 8.12L83.8334 1.764C83.9454 1.44666 84.1134 1.21333 84.3374 1.064C84.5801 0.914663 84.8881 0.839996 85.2614 0.839996H92.7934C93.1481 0.839996 93.4374 0.914663 93.6614 1.064C93.9041 1.21333 94.0814 1.44666 94.1934 1.764L96.6294 8.12C97.0027 9.09066 97.2734 9.94 97.4414 10.668C97.6281 11.396 97.7214 12.04 97.7214 12.6V19.992C97.7214 20.3467 97.6374 20.608 97.4694 20.776C97.3201 20.9253 97.0681 21 96.7134 21H92.4854C92.1121 21 91.8321 20.9253 91.6454 20.776C91.4774 20.608 91.3934 20.3467 91.3934 19.992V16.072H86.4374V19.992Z" fill="white" fill-opacity="0.1"/>
<path d="M106.359 21H102.187C101.832 21 101.571 20.9253 101.403 20.776C101.253 20.608 101.179 20.3467 101.179 19.992V1.848C101.179 1.49333 101.253 1.24133 101.403 1.092C101.571 0.923996 101.832 0.839996 102.187 0.839996H106.695C106.993 0.839996 107.236 0.905329 107.423 1.036C107.628 1.16666 107.815 1.38133 107.983 1.68L110.503 6.244C110.596 6.412 110.671 6.53333 110.727 6.608C110.801 6.68266 110.895 6.72 111.007 6.72H111.259C111.371 6.72 111.455 6.68266 111.511 6.608C111.585 6.53333 111.669 6.412 111.763 6.244L114.255 1.68C114.423 1.38133 114.6 1.16666 114.787 1.036C114.992 0.905329 115.244 0.839996 115.543 0.839996H120.079C120.433 0.839996 120.685 0.923996 120.835 1.092C121.003 1.24133 121.087 1.49333 121.087 1.848V19.992C121.087 20.3467 121.003 20.608 120.835 20.776C120.685 20.9253 120.433 21 120.079 21H115.767C115.412 21 115.151 20.9253 114.983 20.776C114.833 20.608 114.759 20.3467 114.759 19.992V10.136L113.107 13.188C112.939 13.5053 112.733 13.7387 112.491 13.888C112.267 14.0187 111.977 14.084 111.623 14.084H110.503C110.148 14.084 109.849 14.0187 109.607 13.888C109.383 13.7387 109.187 13.5053 109.019 13.188L107.367 10.136V19.992C107.367 20.3467 107.283 20.608 107.115 20.776C106.965 20.9253 106.713 21 106.359 21Z" fill="white" fill-opacity="0.1"/>
</svg>
