<svg width="25" height="25" viewBox="0 0 25 25" fill="none" xmlns="http://www.w3.org/2000/svg">
<path fill-rule="evenodd" clip-rule="evenodd" d="M12.2709 2.43148C12.6849 2.43148 13.0209 2.76748 13.0209 3.18148C13.0209 3.59548 12.6849 3.93148 12.2709 3.93148H8.53193C5.94793 3.93148 4.27893 5.70148 4.27893 8.44048V16.7545C4.27893 19.4935 5.94793 21.2635 8.53193 21.2635H17.3559C19.9399 21.2635 21.6099 19.4935 21.6099 16.7545V12.7265C21.6099 12.3125 21.9459 11.9765 22.3599 11.9765C22.7739 11.9765 23.1099 12.3125 23.1099 12.7265V16.7545C23.1099 20.3485 20.7969 22.7635 17.3559 22.7635H8.53193C5.09093 22.7635 2.77893 20.3485 2.77893 16.7545V8.44048C2.77893 4.84648 5.09093 2.43148 8.53193 2.43148H12.2709ZM20.9805 3.31008L22.1975 4.52708C22.7905 5.11908 23.1165 5.90608 23.1155 6.74408C23.1155 7.58208 22.7895 8.36808 22.1975 8.95908L14.6885 16.4681C14.1375 17.0191 13.4035 17.3231 12.6235 17.3231H8.87753C8.67553 17.3231 8.48153 17.2411 8.34053 17.0961C8.19953 16.9521 8.12253 16.7571 8.12753 16.5541L8.22153 12.7751C8.24053 12.0231 8.54353 11.3161 9.07553 10.7831L16.5495 3.31008C17.7715 2.09008 19.7585 2.09008 20.9805 3.31008ZM15.9339 6.04608L10.1365 11.8441C9.87753 12.1031 9.73053 12.4471 9.72153 12.8121L9.64653 15.8231H12.6235C13.0035 15.8231 13.3595 15.6761 13.6285 15.4071L19.4609 9.57308L15.9339 6.04608ZM17.6095 4.37108L16.9939 4.98508L20.5209 8.51308L21.1375 7.89808C21.4455 7.59008 21.6155 7.18008 21.6155 6.74408C21.6155 6.30708 21.4455 5.89608 21.1375 5.58808L19.9205 4.37108C19.2835 3.73608 18.2475 3.73608 17.6095 4.37108Z" fill="white"/>
</svg>
